<svg width="20" height="13" viewBox="0 0 20 13" fill="none" xmlns="http://www.w3.org/2000/svg">
<g clip-path="url(#clip0_974_268)">
<path d="M7.50008 0C10.8138 0 13.5001 2.68629 13.5001 6C13.5001 6.04267 13.4952 6.08428 13.4884 6.125C13.7245 6.20695 13.9422 6.32714 14.1349 6.47754L13.048 7.56445C12.9997 7.54351 12.9496 7.52521 12.8966 7.51465C12.8424 7.50388 12.7594 7.5 12.3751 7.5C11.9907 7.5 11.9078 7.50387 11.8536 7.51465C11.7049 7.5443 11.5724 7.61713 11.4698 7.71973L10.5909 6.84082C10.5293 6.7792 10.4642 6.72289 10.3976 6.66992C10.7075 6.35568 11.1099 6.13284 11.5616 6.04297C11.6968 6.01613 11.842 6.00678 12.0001 6.00293V6C12.0001 3.51472 9.98536 1.5 7.50008 1.5C5.01483 1.50004 3.00008 3.51475 3.00008 6L2.9991 6.00293C3.15761 6.00676 3.30312 6.01608 3.43856 6.04297C4.33089 6.22046 5.0295 6.91786 5.20711 7.81055C5.25396 8.04608 5.25008 8.31208 5.25008 8.625V10.125C5.25008 10.4377 5.25385 10.7031 5.20711 10.9385C5.02961 11.8308 4.33134 12.5294 3.43856 12.707C3.20307 12.7538 2.93741 12.75 2.62508 12.75C2.31278 12.75 2.04708 12.7538 1.8116 12.707C0.918923 12.5294 0.220551 11.8308 0.043048 10.9385C-0.00370833 10.703 7.91577e-05 10.4373 7.91651e-05 10.125V8.625C7.91651e-05 8.31251 -0.0038165 8.04616 0.043048 7.81055C0.200189 7.02075 0.764958 6.38424 1.51082 6.125C1.504 6.08433 1.50008 6.04261 1.50008 6C1.50008 2.68632 4.18641 4.2876e-05 7.50008 0ZM2.62508 7.5C2.24074 7.5 2.15778 7.50387 2.1036 7.51465C1.80597 7.57398 1.57384 7.80636 1.51473 8.10352C1.50397 8.1577 1.50008 8.24083 1.50008 8.625V10.125C1.50008 10.5094 1.50395 10.5923 1.51473 10.6465C1.574 10.944 1.80639 11.1771 2.1036 11.2363C2.15778 11.2471 2.24074 11.25 2.62508 11.25C3.00933 11.25 3.09238 11.2471 3.14656 11.2363C3.44373 11.1772 3.67615 10.9441 3.73543 10.6465C3.74623 10.5922 3.75008 10.509 3.75008 10.125V8.625C3.75008 8.24127 3.7462 8.15778 3.73543 8.10352C3.6763 7.80627 3.44415 7.57394 3.14656 7.51465C3.09237 7.50388 3.00933 7.5 2.62508 7.5Z" fill="#84FF9F"/>
<path d="M9 8.43201L12.182 11.614L18.5453 5.25" stroke="#84FF9F" stroke-width="1.5" stroke-linecap="round" stroke-linejoin="round"/>
</g>
<defs>
<clipPath id="clip0_974_268">
<rect width="20" height="13" fill="white"/>
</clipPath>
</defs>
</svg>
