<svg width="18" height="15" viewBox="0 0 18 15" fill="none" xmlns="http://www.w3.org/2000/svg">
<g clip-path="url(#clip0_974_281)">
<path d="M7.50008 0C10.7543 0 13.4012 2.5908 13.4952 5.82227L12.7501 6.56836L11.9952 5.81348C11.8974 3.41471 9.92287 1.5 7.50008 1.5C5.01483 1.50004 3.00008 3.51474 3.00008 6L2.9991 6.00293C3.15761 6.00676 3.30312 6.01608 3.43856 6.04297C4.33089 6.22046 5.0295 6.91786 5.20711 7.81055C5.25396 8.04608 5.25008 8.31208 5.25008 8.625V10.125C5.25008 10.4377 5.25385 10.7031 5.20711 10.9385C5.02961 11.8308 4.33134 12.5294 3.43856 12.707C3.20307 12.7538 2.93741 12.75 2.62508 12.75C2.31278 12.75 2.04708 12.7538 1.8116 12.707C0.918923 12.5294 0.220551 11.8308 0.043048 10.9385C-0.00370832 10.703 7.9162e-05 10.4373 7.9162e-05 10.125V8.625C7.9162e-05 8.31251 -0.00381645 8.04616 0.043048 7.81055C0.200189 7.02075 0.764958 6.38424 1.51082 6.125C1.504 6.08433 1.50008 6.04261 1.50008 6C1.50008 2.68632 4.18641 4.2876e-05 7.50008 0ZM2.62508 7.5C2.24074 7.5 2.15778 7.50387 2.1036 7.51465C1.80597 7.57398 1.57384 7.80636 1.51473 8.10352C1.50397 8.1577 1.50008 8.24082 1.50008 8.625V10.125C1.50008 10.5094 1.50395 10.5923 1.51473 10.6465C1.574 10.944 1.80639 11.1771 2.1036 11.2363C2.15778 11.2471 2.24074 11.25 2.62508 11.25C3.00933 11.25 3.09238 11.2471 3.14656 11.2363C3.44373 11.1772 3.67615 10.9441 3.73543 10.6465C3.74623 10.5922 3.75008 10.509 3.75008 10.125V8.625C3.75008 8.24127 3.7462 8.15778 3.73543 8.10352C3.6763 7.80627 3.44415 7.57394 3.14656 7.51465C3.09237 7.50388 3.00933 7.5 2.62508 7.5Z" fill="#FF3A3D"/>
<path d="M9.49512 6L16.9951 13.5M9.49512 13.5L16.9951 6" stroke="#FF3A3D" stroke-width="1.5" stroke-linecap="round" stroke-linejoin="round"/>
</g>
<defs>
<clipPath id="clip0_974_281">
<rect width="18" height="15" fill="white"/>
</clipPath>
</defs>
</svg>
